# xmcd
#
# Track frame offsets: 
#        150
#        23750
#        67690
#        89852
#        147752
#        190865
#        233747
#
# Disc length: 3694 seconds
#
# Revision: 1
# Processed by: cddbd v1.5.2PL0 Copyright (c) Steve Scherf et al.
# Submitted via: ExactAudioCopy v0.99pb5
#
DISCID=550e6c07
DTITLE=Lester Bowie - Mirage CD 1
DYEAR=1999
DGENRE=Jazz
TTITLE0=Lonely Woman
TTITLE1=Banana Whistle
TTITLE2=Hello Dolly
TTITLE3=Fast Last
TTITLE4=F-Troop Rides Again
TTITLE5=Tender Openings
TTITLE6=St. Louis Blues (Chicago Style)
EXTD=YEAR: 1999
EXTT0=
EXTT1=
EXTT2=
EXTT3=
EXTT4=
EXTT5=
EXTT6=
PLAYORDER=
